<svg id="Layer_1" data-name="Layer 1" xmlns="http://www.w3.org/2000/svg" viewBox="0 0 158.05 158.05"><defs><style>.cls-1{fill:#00be40;}.cls-2{fill:#fff;}</style></defs><rect class="cls-1" width="158.05" height="158.05" rx="15.35"/><rect class="cls-2" x="31.39" y="100.03" width="95.56" height="7.6"/><path class="cls-2" d="M57.47,62.14V54.41H31.39V90.49h9.53V77.66H55.66V69.92H40.92V62.14Z"/><path class="cls-2" d="M86,71.78c3.81-1.76,5.82-4.54,5.82-8,0-5.83-4.32-9.33-11.6-9.33H61.76V90.49H80.42c7.94,0,12.68-3.76,12.68-10.15C93.1,76.21,90.47,73.12,86,71.78ZM71.09,61.73h7.37c2.68,0,4.12,1.23,4.12,3.51s-1.44,3.5-4.12,3.5H71.09Zm8,21.44h-8V76h8.09c2.68,0,4.18,1.28,4.18,3.71C83.36,82,81.86,83.17,79.08,83.17Z"/><path class="cls-2" d="M116.1,68.58,111.76,68c-4.28-.62-5.54-1.67-5.54-3.66s1.67-3.35,5.39-3.35c3.44,0,5.13,1.27,5.94,4.41l9.07-1.17c-1.33-7.1-6.43-10.55-14.75-10.55-9.31,0-15.43,4.65-15.43,11.76,0,6.11,3.71,9.67,11.3,10.72l4.54.62c4.81.69,6,1.78,6,3.88s-1.78,3.35-6,3.35a6.83,6.83,0,0,1-6.84-4.81l-9.45,1.42c1.53,7.35,7.12,10.7,16,10.7,10.09,0,16.05-4.34,16.05-11.71C128,73.13,124.36,69.78,116.1,68.58Z"/></svg>