<svg width="150" height="36" viewBox="0 0 150 36" fill="none" xmlns="http://www.w3.org/2000/svg">
<path fill-rule="evenodd" clip-rule="evenodd" d="M21.4076 18.0682C21.4076 23.6239 16.8528 28.1277 11.2341 28.1277C5.6154 28.1277 1.06055 23.6239 1.06055 18.0682C1.06055 12.5126 5.6154 8.00879 11.2341 8.00879C16.8528 8.00879 21.4076 12.5126 21.4076 18.0682ZM17.6531 18.0682C17.6531 21.5736 14.7792 24.4153 11.2341 24.4153C7.68896 24.4153 4.81507 21.5736 4.81507 18.0682C4.81507 14.5629 7.68896 11.7212 11.2341 11.7212C14.7792 11.7212 17.6531 14.5629 17.6531 18.0682Z" fill="#120136"/>
<path d="M35.0598 11.7167C34.7966 11.4163 34.5136 11.1306 34.2118 10.8618C32.3197 9.1761 29.8386 8.28409 27.2933 8.37441C24.748 8.46474 22.338 9.53032 20.5729 11.3458C18.8078 13.1614 17.826 15.5845 17.835 18.1028C17.8441 20.6212 18.8433 23.0373 20.6214 24.8404C22.3995 26.6435 24.8171 27.6921 27.363 27.7645C29.9089 27.837 32.3835 26.9275 34.2635 25.2285C34.5459 24.9733 34.8116 24.7032 35.0598 24.42L32.2122 22.0004C32.0618 22.1711 31.9011 22.3341 31.7305 22.4882C30.57 23.537 29.0425 24.0984 27.471 24.0536C25.8995 24.0089 24.4071 23.3616 23.3095 22.2486C22.2119 21.1356 21.5951 19.6442 21.5895 18.0896C21.5839 16.5351 22.19 15.0393 23.2796 13.9187C24.3691 12.798 25.8568 12.1402 27.428 12.0844C28.9991 12.0287 30.5307 12.5793 31.6987 13.6199C31.8811 13.7824 32.0525 13.955 32.2122 14.1363L35.0598 11.7167Z" fill="#120136"/>
<path d="M37.3945 20.1042V4.17676H41.1491V8.72746L46.7808 8.72746V12.2004L41.1491 12.2004V20.3437C41.1491 22.4271 42.8571 24.116 44.9641 24.116H46.7808V27.5889H44.9641C40.7836 27.5889 37.3945 24.2379 37.3945 20.1042Z" fill="#120136"/>
<path fill-rule="evenodd" clip-rule="evenodd" d="M64.585 25.1769C63.0602 26.7823 60.9353 27.7651 58.3751 27.7685C52.9631 27.7614 48.5781 23.4212 48.5781 18.0683C48.5781 12.7154 52.9631 8.37524 58.3751 8.36816C60.9353 8.37153 63.0602 9.35436 64.585 10.9598V8.72742L68.2184 8.72742V27.4093H64.585V25.1769ZM58.3883 24.0561C61.7328 24.0561 64.444 21.3753 64.444 18.0683C64.444 14.7614 61.7328 12.0806 58.3883 12.0806C55.0439 12.0806 52.3326 14.7614 52.3326 18.0683C52.3326 21.3753 55.0439 24.0561 58.3883 24.0561Z" fill="#120136"/>
<path d="M136.067 8.73633H131.503L145.313 27.4166H149.878L136.067 8.73633Z" fill="#120136"/>
<path d="M145.313 8.73633H149.878L136.068 27.4166H131.503L145.313 8.73633Z" fill="#120136"/>
<path d="M120.979 8.77538V27.416H124.75V12.3093H130.21V8.77538H124.75C124.75 5.43559 126.52 4.22559 128.638 4.22559H130.21V0.730469H128.638C124.004 0.730469 120.979 3.72687 120.979 8.77538Z" fill="#120136"/>
<path d="M76.7275 18.0229C76.7275 3.42798 79.8913 0.299805 94.6523 0.299805C109.413 0.299805 112.577 3.42798 112.577 18.0229C112.577 32.6178 109.413 35.746 94.6523 35.746C79.8913 35.746 76.7275 32.6178 76.7275 18.0229Z" fill="url(#paint0_linear_26_972)"/>
<path d="M89.1344 4.17633C93.9224 4.23441 100.561 11.9309 103.528 17.2458C105.701 15.0966 106.906 13.0926 107.053 11.6405C108.345 11.8728 109.52 12.657 109.549 14.0511C109.608 15.8517 107.963 18.3785 105.202 20.8762C106.436 24.1291 106.583 26.8301 105.408 28.079C104.879 28.6018 104.174 28.776 103.41 28.776C103.498 27.0625 103.087 25.1456 102.323 23.1707C97.036 26.9463 90.5444 29.3859 86.667 29.2117C85.3746 29.1536 84.3759 28.8051 83.7884 28.108C82.9659 27.1786 83.3184 26.1331 83.3772 25.9879C88.8113 26.8011 96.2723 23.0254 100.678 19.7145C96.9773 13.0636 90.4269 6.93544 86.4614 6.93544C86.5789 5.27997 87.4601 4.14728 89.1344 4.17633Z" fill="url(#paint1_radial_26_972)"/>
<path d="M100.913 32.1453C95.9486 32.1453 89.5744 25.0007 86.6664 20.3537C84.6396 22.2706 81.4672 26.1334 83.2003 28.2826C82.9359 27.9921 80.4979 24.9426 80.4392 24.8264C79.2936 22.8805 81.0266 19.6567 84.5221 16.4329C83.2884 13.7028 82.7891 11.7569 82.7891 10.2757C82.7891 7.31329 84.676 5.9749 86.5196 4.49609C84.9334 6.76147 86.637 11.2922 87.812 13.79C92.4237 10.5081 99.0035 7.7199 103.351 7.7199C104.996 7.7199 106.259 8.03938 107.258 9.28824L109.461 12.0183C105.73 8.85259 94.8617 14.0513 89.9857 17.5946C92.9524 22.2125 101.295 31.7387 105.701 28.544C104.643 29.7347 102.499 32.1453 100.913 32.1453Z" fill="url(#paint2_radial_26_972)"/>
<path d="M83.2893 28.3694C83.2599 28.3403 83.2305 28.3113 83.2012 28.2822L83.2893 28.3694Z" fill="white"/>
<defs>
<linearGradient id="paint0_linear_26_972" x1="112.577" y1="0.299802" x2="77.1333" y2="36.1471" gradientUnits="userSpaceOnUse">
<stop/>
<stop offset="1" stop-color="#1A0052"/>
</linearGradient>
<radialGradient id="paint1_radial_26_972" cx="0" cy="0" r="1" gradientUnits="userSpaceOnUse" gradientTransform="translate(101.163 18.2083) rotate(129.574) scale(15.761 15.7849)">
<stop stop-color="#0E012B"/>
<stop offset="0.245616" stop-color="#0E012B"/>
<stop offset="0.555123" stop-color="#0E155A"/>
<stop offset="1" stop-color="#172A80"/>
</radialGradient>
<radialGradient id="paint2_radial_26_972" cx="0" cy="0" r="1" gradientUnits="userSpaceOnUse" gradientTransform="translate(92.0416 12.9586) rotate(85.2065) scale(20.8665 24.8577)">
<stop stop-color="#9DE2FF"/>
<stop offset="0.427083" stop-color="#5E97F9"/>
<stop offset="0.846711" stop-color="#0C34F0"/>
<stop offset="0.994638" stop-color="#101B4B"/>
</radialGradient>
</defs>
</svg>
